{"title":"Rychly Prachy (PRAHA - 28.09.2011) - Martina","uid":6713069,"size":293179100,"categoryP":"porn","categoryS":"movies","magnet":"?xt=urn:btih:b097b4d5f52fc81b4875124ac2ddf434dcfa5cec&amp;dn=Rychly+Prachy+%28PRAHA+-+28.09.2011%29+-+Martina&amp;tr=udp%3A%2F%2Ftracker.openbittorrent.com%3A80&amp;tr=udp%3A%2F%2Fopen.demonii.com%3A1337&amp;tr=udp%3A%2F%2Ftracker.coppersurfer.tk%3A6969&amp;tr=udp%3A%2F%2Fexodus.desync.com%3A6969","seeders":0,"leechers":0,"uploader":null,"files":4,"time":1317433655,"description":"\n\n                Rychly Prachy (PRAHA - 28.09.2011) - Martina\n\n\n\n\n  Without advertising kinotip!\n  Without errors on video!\n  \nScreen:         &lt;a href=&quot; http://image.bayimg.com/nakjbaade.jpg&quot; rel=&quot;nofollow&quot; target=&quot;_NEW&quot;&gt; http://image.bayimg.com/nakjbaade.jpg&lt;/a&gt;\nOficial website: http://rychlyprachy.cz/\nDirect Link:    &lt;a href=&quot; http://rychlyprachy.cz/video57.cz.html&quot; rel=&quot;nofollow&quot; target=&quot;_NEW&quot;&gt; http://rychlyprachy.cz/video57.cz.html&lt;/a&gt;\n\n\n\nGeneral\nComplete name                    : Rychly Prachy (PRAHA - 28.09.2011) - Martina.wmv\nFormat                           : Windows Media\nFile size                        : 279 MiB\nDuration                         : 15mn 11s\nOverall bit rate mode            : Constant\nOverall bit rate                 : 2 573 Kbps\nMaximum Overall bit rate         : 2 583 Kbps\nEncoded date                     : UTC 2011-09-27 21:50:19.700\nSfOriginalFPS                    : 300000\n\nVideo\nID                               : 2\nFormat                           : VC-1\nFormat profile                   : MP@ML\nCodec ID                         : WMV3\nCodec ID/Info                    : Windows Media Video 9\nCodec ID/Hint                    : WMV3\nDescription of the codec         : Windows Media Video 9 - Professional\nDuration                         : 15mn 11s\nBit rate mode                    : Constant\nBit rate                         : 2 496 Kbps\nWidth                            : 640 pixels\nHeight                           : 480 pixels\nDisplay aspect ratio             : 4:3\nFrame rate                       : 30.000 fps\nBit depth                        : 8 bits\nScan type                        : Progressive\nCompression mode                 : Lossy\nBits/(Pixel*Frame)               : 0.271\nStream size                      : 271 MiB (97%)\nLanguage                         : Czech\n\nAudio\nID                               : 1\nFormat                           : WMA\nFormat version                   : Version 2\nCodec ID                         : 161\nCodec ID/Info                    : Windows Media Audio\nDescription of the codec         : Windows Media Audio 9.2 -  64 kbps, 44 kHz, stereo (A/V) 1-pass CBR\nDuration                         : 15mn 11s\nBit rate mode                    : Constant\nBit rate                         : 64.0 Kbps\nChannel(s)                       : 2 channels\nSampling rate                    : 44.1 KHz\nBit depth                        : 16 bits\nStream size                      : 6.96 MiB (2%)\nLanguage                         : Czech\n\n\n\n\n","torrent":{"xt":"urn:btih:b097b4d5f52fc81b4875124ac2ddf434dcfa5cec","amp;dn":"Rychly+Prachy+%28PRAHA+-+28.09.2011%29+-+Martina","amp;tr":["udp%3A%2F%2Ftracker.openbittorrent.com%3A80","udp%3A%2F%2Fopen.demonii.com%3A1337","udp%3A%2F%2Ftracker.coppersurfer.tk%3A6969","udp%3A%2F%2Fexodus.desync.com%3A6969"],"infoHash":"b097b4d5f52fc81b4875124ac2ddf434dcfa5cec","infoHashBuffer":{"type":"Buffer","data":[176,151,180,213,245,47,200,27,72,117,18,74,194,221,244,52,220,250,92,236]},"announce":[],"urlList":[]}}